<svg width="400" height="433" viewBox="0 0 400 433" fill="none" xmlns="http://www.w3.org/2000/svg">
<g clip-path="url(#clip0_1_2)">
<path d="M325.1 65.4C325.7 55.2 327.1 48.4 329.9 42.3C331 39.9 332 37.9 332.2 37.9C332.4 37.9 331.9 39.7 331.1 41.9C329.1 47.9 328.7 56.1 330.1 65.6C331.9 77.7 332.9 79.4 345.7 92.5C351.7 98.6 358.7 106.3 361.2 109.6L365.8 115.6L361.2 111.3C355.6 106 342.6 95.8 339.8 94.3C337.9 93.3 337.6 93.3 336.4 94.5C335.3 95.6 335.1 97.2 334.9 104.9C334.7 116.9 333 124.6 329.1 132.2C327 136.4 326.6 135.5 328.6 130.8C330 127.3 330.2 125.8 330.2 114.2C330.2 90.9 327.4 85.3 311.1 75.7C307 73.3 300.2 69.8 296 67.9C291.8 66 288.5 64.4 288.6 64.3C289.1 63.8 304.9 68.5 311.3 70.9C320.8 74.5 322.4 75 323.5 74.6C324.4 74.2 324.8 72 325.1 65.4Z" fill="#F50DB4"/>
<path d="M124.4 31.5C118.8 30.6 118.5 30.5 121.2 30.1C126.3 29.3 138.3 30.4 146.6 32.3C165.9 36.9 183.5 48.6 202.2 69.3L207.2 74.8L214.3 73.7C244.3 68.9 274.9 72.7 300.4 84.5C307.4 87.7 318.5 94.2 319.9 95.8C320.3 96.3 321.2 99.7 321.7 103.3C323.6 115.8 322.6 125.4 318.8 132.6C316.7 136.5 316.6 137.7 318 141.1C319.1 143.8 322.3 145.7 325.4 145.7C331.7 145.7 338.6 135.5 341.7 121.3L343 115.7L345.5 118.5C359.2 133.9 369.9 154.9 371.7 169.8L372.2 173.7L369.9 170.2C365.9 164.1 362 160 356.9 156.6C347.7 150.6 338 148.5 312.4 147.2C289.2 146 276.1 144 263.1 139.8C241 132.6 229.8 123.1 203.5 88.7C191.8 73.5 184.6 65 177.4 58.2C161 42.8 145 34.7 124.4 31.5Z" fill="#F50DB4"/>
<path d="M135.4 105.3C124 89.6 116.9 65.6 118.4 47.7L118.9 42.1L121.5 42.6C126.4 43.5 134.8 46.6 138.8 49C149.6 55.5 154.3 64.2 159.1 86.3C160.5 92.8 162.3 100.1 163.2 102.6C164.6 106.6 169.7 115.9 173.9 122C176.9 126.4 174.9 128.4 168.3 127.8C158 126.9 144.2 117.5 135.4 105.3Z" fill="#F50DB4"/>
<path d="M311.3 221.9C257.8 200.5 239 181.9 239 150.5C239 145.9 239.2 142.1 239.4 142.1C239.6 142.1 241.7 143.6 244 145.5C254.8 154.1 267 157.8 300.6 162.7C320.4 165.6 331.5 167.9 341.8 171.3C374.4 182.1 394.6 203.9 399.4 233.7C400.8 242.3 400 258.6 397.7 267.1C395.9 273.8 390.4 286 389 286.5C388.6 286.6 388.2 285.1 388.1 283C387.5 271.8 381.9 261 372.3 252.8C361.4 243.6 346.9 236.2 311.3 221.9Z" fill="#F50DB4"/>
<path d="M273.7 230.8C273 226.8 271.9 221.8 271.1 219.5L269.7 215.5L272.2 218.3C275.7 222.2 278.5 227.2 280.8 233.9C282.6 239 282.8 240.5 282.8 248.8C282.8 256.9 282.6 258.6 280.9 263.2C278.3 270.4 275.1 275.6 269.6 281.1C259.8 291 247.3 296.5 229.2 298.7C226.1 299.1 216.9 299.8 208.8 300.2C188.5 301.3 175.1 303.4 163 307.6C161.3 308.2 159.7 308.6 159.6 308.4C159.1 307.9 167.3 303.1 174.1 299.8C183.6 295.2 193.1 292.7 214.4 289.2C224.9 287.5 235.8 285.3 238.5 284.5C264.6 276.7 278 256.2 273.7 230.8Z" fill="#F50DB4"/>
<path d="M298.2 274.1C291.1 258.9 289.5 244.2 293.4 230.6C293.8 229.1 294.5 227.9 294.9 227.9C295.3 227.9 297 228.8 298.6 229.9C301.9 232.1 308.4 235.8 325.9 245.3C347.7 257.1 360.2 266.3 368.6 276.8C376 286 380.6 296.4 382.8 309.1C384.1 316.3 383.3 333.7 381.5 340.9C375.6 363.8 362 381.8 342.5 392.3C339.6 393.8 337.1 395.1 336.8 395.1C336.5 395.1 337.6 392.5 339.1 389.3C345.6 375.7 346.4 362.5 341.4 347.7C338.4 338.7 332.2 327.7 319.7 309.1C305.4 287.5 301.8 281.7 298.2 274.1Z" fill="#F50DB4"/>
<path d="M97.4 356.1C117.2 339.4 141.9 327.6 164.4 324C174.1 322.4 190.2 323.1 199.2 325.3C213.6 329 226.5 337.2 233.1 346.9C239.6 356.4 242.4 364.8 245.4 383.3C246.6 390.6 247.8 397.9 248.2 399.6C250.4 409.2 254.7 416.9 260 420.7C268.4 426.8 282.9 427.2 297.1 421.7C299.5 420.8 301.6 420.1 301.8 420.3C302.3 420.8 295.1 425.6 290.1 428.1C283.3 431.5 277.9 432.8 270.7 432.8C257.7 432.8 246.8 426.2 237.8 412.8C236 410.2 232 402.2 228.9 395.2C219.4 373.6 214.7 367 203.6 359.8C194 353.5 181.5 352.4 172.2 357C159.9 363 156.5 378.6 165.3 388.5C168.8 392.4 175.3 395.8 180.6 396.5C190.6 397.7 199.1 390.2 199.1 380.2C199.1 373.7 196.6 370 190.3 367.1C181.7 363.2 172.4 367.8 172.4 375.8C172.4 379.2 173.9 381.4 177.4 383C179.6 384 179.7 384.1 177.9 383.7C170 382.1 168.1 372.6 174.5 366.3C182.2 358.7 198 362.1 203.4 372.4C205.7 376.7 205.9 385.4 204 390.6C199.5 402.3 186.6 408.4 173.4 405.1C164.4 402.8 160.8 400.4 150 389.3C131.2 370 123.9 366.3 96.8 362.1L91.6 361.3L97.4 356.1Z" fill="#F50DB4"/>
<path fill-rule="evenodd" clip-rule="evenodd" d="M9.2 11.5C72 87.2 115.2 118.5 120 125.1C124 130.6 122.5 135.5 115.7 139.3C111.9 141.4 104.2 143.6 100.3 143.6C95.9 143.6 94.4 141.9 94.4 141.9C91.8 139.5 90.4 139.9 77.3 116.8C59.1 88.8 43.9 65.5 43.5 65.1C42.5 64.2 42.6 64.2 75.5 122.8C80.8 135 76.6 139.5 76.6 141.2C76.6 144.7 75.6 146.6 71.2 151.5C63.9 159.6 60.6 168.7 58.3 187.6C55.7 208.7 48.2 223.7 27.6 249.2C15.5 264.2 13.6 266.9 10.5 272.9C6.7 280.5 5.6 284.8 5.2 294.3C4.7 304.4 5.6 311 8.7 320.7C11.4 329.2 14.3 334.8 21.6 346C27.9 355.7 31.5 362.9 31.5 365.7C31.5 367.9 31.9 367.9 41.7 365.8C65 360.6 83.9 351.4 94.5 340.1C101.1 333.1 102.6 329.3 102.7 319.7C102.7 313.4 102.5 312.1 100.8 308.5C98 302.6 93 297.8 81.9 290.2C67.4 280.3 61.1 272.3 59.4 261.4C58 252.4 59.6 246.1 67.7 229.3C76 211.9 78.1 204.5 79.5 187C80.4 175.7 81.7 171.2 84.9 167.7C88.3 164 91.4 162.7 99.8 161.6C113.5 159.7 122.3 156.2 129.5 149.6C135.7 143.9 138.4 138.4 138.8 130.1L139.1 123.8L135.6 119.8C122.8 105.1 4.8 5 4 5C13.2 16.5 4 5.2 9.2 11.5ZM38.5 305.9C41.4 300.9 39.8 294.4 35.1 291.2C30.6 288.2 23.6 289.6 23.6 293.5C23.6 294.7 24.3 295.6 25.7 296.3C28.2 297.6 28.4 299 26.4 302C24.4 305 24.6 307.6 26.9 309.4C30.5 312.3 35.7 310.7 38.5 305.9Z" fill="#F50DB4"/>
<path fill-rule="evenodd" clip-rule="evenodd" d="M147.6 164.9C141.1 166.9 134.9 173.7 132.9 180.8C131.7 185.2 132.4 192.8 134.2 195.1C137.1 198.9 139.8 199.9 147.3 199.9C162 199.8 174.8 193.5 176.3 185.7C177.5 179.3 171.9 170.4 164.2 166.5C160.2 164.4 151.7 163.6 147.6 164.9ZM164.8 178.3C167.1 175.1 166.1 171.6 162.2 169.3C154.9 164.8 143.8 168.5 143.8 175.4C143.8 178.8 149.6 182.6 154.9 182.6C158.4 182.6 163.2 180.5 164.8 178.3Z" fill="#F50DB4"/>
</g>
<defs>
<clipPath id="clip0_1_2">
<rect width="400" height="432.7" fill="white"/>
</clipPath>
</defs>
</svg>
