<?xml version="1.0" encoding="UTF-8"?>
<svg version="1.1" xmlns="http://www.w3.org/2000/svg" width="1440" height="1440">
<path d="M0 0 C4.51228887 2.87888113 8.5379216 6.0409939 12.5625 9.5625 C13.80304482 10.63711207 15.04393795 11.71132216 16.28515625 12.78515625 C16.90664551 13.32414551 17.52813477 13.86313477 18.16845703 14.41845703 C20.92732678 16.80074952 23.71281767 19.15096239 26.5 21.5 C32.77227024 26.79586332 39.00591784 32.13605034 45.23388672 37.48388672 C48.15442275 39.99100985 51.07732311 42.49537328 54 45 C55.16667816 45.99998659 56.33334482 46.9999866 57.5 48 C58.0775 48.495 58.655 48.99 59.25 49.5 C65.66666667 55 72.08333333 60.5 78.5 66 C79.36612915 66.74237915 79.36612915 66.74237915 80.24975586 67.49975586 C81.41728228 68.50051606 82.5847627 69.50132992 83.75219727 70.50219727 C86.65533629 72.99100676 89.55924949 75.47890091 92.46484375 77.96484375 C99.12490677 83.66489769 105.76448934 89.38758284 112.38330078 95.13549805 C116.67586374 98.86066608 120.98978046 102.55990235 125.3125 106.25 C129.32347501 109.67440949 133.28655105 113.13726728 137.1875 116.6875 C140.52227114 119.71712868 143.93287639 122.60608092 147.4375 125.4375 C152.21284402 129.29941675 156.73667685 133.37674224 161.25390625 137.53515625 C163.91875166 139.92707297 166.64831825 142.19254884 169.4375 144.4375 C173.9739673 148.09635769 178.258661 151.94868963 182.52148438 155.91601562 C185.73281228 158.8870119 189.02618789 161.69953832 192.4375 164.4375 C197.21621628 168.28110057 201.69157687 172.36960164 206.16381836 176.55834961 C209.51099327 179.67553945 212.93005023 182.63573798 216.5 185.5 C221.26188842 189.3205849 225.71435594 193.39067803 230.16625977 197.56079102 C233.491548 200.65780084 236.88719939 203.59621684 240.4375 206.4375 C245.45922225 210.46511129 250.12582761 214.79345856 254.80834961 219.20288086 C258.27078844 222.44563261 261.79295976 225.53436781 265.5 228.5 C271.19135643 233.05644784 276.46412282 238.00792221 281.77734375 242.9921875 C284.81794331 245.8422557 287.92348424 248.60488811 291.078125 251.328125 C293.41105074 253.35758073 295.70511245 255.427647 298 257.5 C300.98062721 260.18983431 303.97245233 262.86310364 307 265.5 C310.89512811 268.89253093 314.72782763 272.35194201 318.5625 275.8125 C320.69417481 277.72554149 322.8401911 279.61887612 325 281.5 C329.71702877 285.61082427 334.35569709 289.8074226 339 294 C340.66640851 295.50028679 342.33307353 297.00028872 344 298.5 C354 307.5 354 307.5 356.5078125 309.7578125 C358.14739879 311.23292618 359.78799655 312.70691652 361.4296875 314.1796875 C367.48392486 319.6149613 373.4898955 325.10132485 379.48095703 330.60595703 C380.95289916 331.95677503 382.42757736 333.30460973 383.90234375 334.65234375 C386.41073733 336.94525117 388.91447234 339.24300632 391.41503906 341.54443359 C392.46973575 342.51302596 393.5263735 343.47950907 394.58496094 344.44384766 C403.01052934 352.12300685 411.18037601 360.0543281 419.26553345 368.08929443 C420.36495591 369.18131209 421.46596654 370.27173354 422.56869507 371.3604126 C426.10314096 374.85393822 429.57855349 378.39576939 433 382 C433.82822266 382.86351074 434.65644531 383.72702148 435.50976562 384.61669922 C439.93653478 389.60514657 441.92141475 393.15421342 441.8059082 399.88818359 C441.71635864 401.24290771 441.71635864 401.24290771 441.625 402.625 C441.59043701 403.5835791 441.55587402 404.5421582 441.52026367 405.52978516 C441.39857184 408.35917924 441.21205005 411.17608894 441 414 C440.95020996 414.76248047 440.90041992 415.52496094 440.84912109 416.31054688 C439.2214336 439.23602149 430.20023043 457.05750051 414 473 C413.113125 473.88558594 412.22625 474.77117187 411.3125 475.68359375 C386.56334259 499.29104895 354.10041171 508.07167465 321.20703125 513.46875 C320.43897659 513.59584351 319.67092194 513.72293701 318.8795929 513.85388184 C315.06265161 514.48388055 311.24442855 515.09769809 307.42016602 515.68164062 C289.89126993 518.45051559 275.7932996 524.30123015 265 539 C254.40633136 556.72185525 254.17119404 579.53393606 252.2890625 599.5 C247.93285568 645.5087453 235.86225257 684.88296181 216.07519531 726.50756836 C197.47298877 765.64464264 179.59957111 804.13055626 193.25 847.875 C205.9673726 883.11271992 237.00103476 905.51756048 266.8125 925.6875 C291.02655912 942.09240176 319.53196659 963.37772264 325.54418945 993.74902344 C329.18301941 1019.70224237 326.33946437 1045.91960881 311.25 1067.6875 C266.61562098 1125.9406364 186.61246231 1151.19813764 117.5 1165.5 C116.73598877 1165.66032715 115.97197754 1165.8206543 115.18481445 1165.98583984 C110.38185003 1166.92345516 105.89597846 1167.29801608 101 1167 C98.56191956 1164.56191956 98.6305802 1163.48461908 98.1875 1160.125 C94.27797803 1137.48478319 78.14780409 1115.95227795 66 1097 C28.29681032 1038.13069583 4.00437509 972.83806593 18.47045898 901.93139648 C24.59698059 874.8306966 39.12358536 850.69966517 56 829 C56.49000488 828.36368652 56.98000977 827.72737305 57.48486328 827.07177734 C63.24318872 819.59503044 69.19598223 812.2776285 75.15991211 804.96459961 C80.07509514 798.93024027 84.88954977 792.82118544 89.67919922 786.68701172 C90.96982698 785.03853892 92.26683747 783.39533643 93.56640625 781.75390625 C95.86889721 778.84492661 98.15539905 775.92380404 100.43652344 772.99804688 C101.51615632 771.61832865 102.60044123 770.24224247 103.68847656 768.86914062 C124.94934852 741.99985734 144.3268788 713.01004936 159 682 C159.32564941 681.32211426 159.65129883 680.64422852 159.98681641 679.94580078 C174.6581845 649.20817587 180.7612393 616.84563713 185.37719727 583.36303711 C190.58043878 546.10034902 198.96238857 508.1493182 225.5625 480 C234.80792476 470.16940115 240.61016357 461.16894177 242.44921875 447.66015625 C242.91563598 444.56063182 243.58193101 442.09024964 244.6875 439.1875 C250.39564813 421.12181841 243.92690794 401.4974064 235.6809082 385.4296875 C234.30922007 382.85711482 232.91108329 380.30116853 231.5 377.75 C230.98228027 376.80745361 230.46456055 375.86490723 229.93115234 374.89379883 C225.13983852 366.19650702 220.25233207 357.55390374 215.3515625 348.91796875 C211.87698255 342.79205783 208.43655645 336.64730077 205 330.5 C200.51980274 322.48869502 196.0219386 314.48781856 191.5 306.5 C185.21865269 295.40247614 178.98604185 284.27802186 172.76171875 273.1484375 C171.01988075 270.03552967 169.2759451 266.92380728 167.53125 263.8125 C159.51554888 249.51599057 151.51188519 235.2121316 143.59716797 220.859375 C142.56047579 219.00340759 141.50324967 217.15870696 140.42236328 215.328125 C139.95427246 214.52890625 139.48618164 213.7296875 139.00390625 212.90625 C138.59084229 212.21853516 138.17777832 211.53082031 137.75219727 210.82226562 C137 209 137 209 138 206 C143.58518118 213.49274389 148.76724567 221.15867158 153.75 229.0625 C158.41122365 236.40113827 163.08981463 243.72043558 167.9375 250.9375 C172.82365662 258.21574089 177.6434634 265.53576387 182.4375 272.875 C182.80201263 273.433013 183.16652527 273.991026 183.54208374 274.56594849 C189.8556041 284.23349919 196.1521732 293.91204863 202.43945312 303.59667969 C205.12473048 307.73214125 207.81251919 311.86597019 210.5 316 C211.58334477 317.66665923 212.66667812 319.33332589 213.75 321 C214.28625 321.825 214.8225 322.65 215.375 323.5 C217 326 218.625 328.5 220.25 331 C220.7864917 331.8252417 221.3229834 332.6504834 221.87573242 333.50073242 C222.95710514 335.16464532 224.03799847 336.82886987 225.1184082 338.4934082 C227.85285842 342.70491488 230.59586653 346.91039276 233.35546875 351.10546875 C240.22568161 361.56838936 246.74302843 372.16153035 253 383 C266.77703364 406.95255358 266.77703364 406.95255358 282 430 C282.42829102 430.61246582 282.85658203 431.22493164 283.29785156 431.85595703 C290.14825482 441.56901922 298.4520885 452.18589681 310.734375 454.51953125 C332.93417588 456.67624766 358.0624706 448.43187704 376.125 435.625 C381.5258785 431.02233195 385.33623666 425.91524172 386.5390625 418.8203125 C386.99710914 408.57453247 383.63335929 401.81263895 377.0625 394.1875 C368.63115871 385.26514882 359.49905974 377.11380002 349.921875 369.44921875 C344.90916611 365.24738924 340.20381675 360.7153132 335.4453125 356.23046875 C332.32224078 353.28967421 329.13727908 350.43600823 325.88671875 347.63671875 C323.56341213 345.62126228 321.28251535 343.56151538 319 341.5 C316.08511071 338.86819555 313.15726789 336.25713074 310.1875 333.6875 C305.48361065 329.58934288 300.92315604 325.33772421 296.34765625 321.09765625 C293.30700493 318.28023599 290.24892271 315.48234985 287.1875 312.6875 C267.58233129 294.72260437 267.58233129 294.72260437 258.86143398 285.82898045 C257.0441858 284.04341543 255.16767034 282.38107434 253.23268127 280.72459412 C249.25619831 277.26532236 245.49672252 273.63836407 241.77709961 269.90649414 C241.10442551 269.23557236 240.4317514 268.56465057 239.73869324 267.87339783 C237.54074095 265.67980618 235.34641931 263.48262496 233.15234375 261.28515625 C231.61127557 259.74476277 230.07005905 258.20451767 228.52870178 256.66441345 C225.30876703 253.44594784 222.09063454 250.22569389 218.8737793 247.00415039 C214.76629846 242.89097277 210.65434395 238.78230147 206.5410223 234.67496586 C203.3606366 231.49820696 200.18265287 228.31905373 197.005373 225.13918877 C195.49076124 223.6239136 193.97541648 222.10937074 192.4593029 220.59559822 C190.33493045 218.47378722 188.21382674 216.34875915 186.09350586 214.22290039 C185.47668945 213.60810822 184.85987305 212.99331604 184.22436523 212.3598938 C180.5171217 208.63484303 177.00368012 204.78963917 173.5809412 200.80124569 C171.18225379 198.06830069 168.60244807 195.53690174 166 193 C162.01161994 189.06609416 158.20836942 185.06067595 154.57421875 180.79296875 C152.44427633 178.36705418 150.14629345 176.13410462 147.84301758 173.87426758 C146.06255315 172.06361379 144.39768272 170.19837477 142.7421875 168.2734375 C139.13634636 164.12605279 135.40138898 160.116791 131.625 156.125 C126.00160937 150.15368538 120.45731869 144.12386143 115 138 C113.45889713 136.29115804 111.91722314 134.58283099 110.375 132.875 C107.15176747 129.29486975 103.96600883 125.68557236 100.8046875 122.05078125 C98.77041859 119.73911203 96.6977769 117.4646857 94.625 115.1875 C91.51471149 111.74621795 88.53521688 108.23678702 85.625 104.625 C82.3804924 100.61175889 79.0127332 96.77564046 75.5 93 C71.1900623 88.367489 67.1493906 83.5787805 63.1796875 78.6484375 C61.02242601 76.02724881 58.78689 73.50845719 56.5 71 C52.63785433 66.7569853 48.99245691 62.37657134 45.3828125 57.91796875 C42.79243894 54.74582277 40.15306563 51.61965982 37.5 48.5 C33.45135468 43.73308031 29.45760943 38.92688502 25.51171875 34.07421875 C23.56608988 31.69286584 21.60993295 29.32198962 19.64453125 26.95703125 C0 3.29387815 0 3.29387815 0 0 Z " fill="#010101" transform="translate(85,33)"/>
<path d="M0 0 C4.83057315 1.53120055 8.06380929 4.30181196 11.875 7.5 C66.01417996 51.69579262 141.99154627 57.03797349 208.51049805 67.12109375 C290.95719915 79.62572107 371.38692333 97.67636761 436 154 C436.50337891 154.43876465 437.00675781 154.8775293 437.52539062 155.32958984 C443.48377295 160.55586425 448.93088972 165.91706767 454 172 C455.21236328 173.38058594 455.21236328 173.38058594 456.44921875 174.7890625 C499.71110066 224.2379517 515.34302865 286.84303521 511.25 351.3125 C508.69934561 386.81770284 500.71660333 429.14377415 478 458 C476.68 458 475.36 458 474 458 C473.89042969 457.28199219 473.78085938 456.56398438 473.66796875 455.82421875 C473.32422849 453.58012583 472.97607163 451.33670766 472.625 449.09375 C472.17932731 446.22226392 471.76957421 443.34768034 471.375 440.46875 C467.56042841 413.43213734 457.10131352 389.59584082 439 369 C437.90558594 367.72382812 437.90558594 367.72382812 436.7890625 366.421875 C387.9392198 310.54451107 302.68845039 284.22228734 235.88269043 257.27474976 C178.55645264 234.14913408 119.65634929 209.91970749 71 171 C70.02160156 170.23429688 69.04320312 169.46859375 68.03515625 168.6796875 C44.42931484 149.89207217 25.41039954 127.65198799 13 100 C12.18595703 98.20369141 12.18595703 98.20369141 11.35546875 96.37109375 C-1.30583403 66.65709964 -3.90057508 31.82143579 0 0 Z " fill="#010101" transform="translate(844,484)"/>
<path d="M0 0 C0.97960693 -0.00846703 0.97960693 -0.00846703 1.97900391 -0.0171051 C4.10603559 -0.02913774 6.23234422 -0.02284227 8.359375 -0.01171875 C9.09345581 -0.0095636 9.82753662 -0.00740845 10.5838623 -0.00518799 C89.34160402 0.36423583 156.20363849 35.21610563 213.109375 87.30078125 C213.59873535 87.74502441 214.0880957 88.18926758 214.59228516 88.64697266 C224.85530049 97.96391121 235.11922491 107.41976049 244.09765625 118.00390625 C247.64082647 122.04931225 251.35693739 125.93743056 255.04858398 129.84716797 C255.91785522 130.77166748 255.91785522 130.77166748 256.8046875 131.71484375 C257.37348633 132.31329102 257.94228516 132.91173828 258.52832031 133.52832031 C260.109375 135.30078125 260.109375 135.30078125 261.37011719 137.09667969 C262.64383708 139.01626351 262.64383708 139.01626351 265.109375 141.30078125 C268.19060505 141.77509097 270.07891016 141.72460205 273.109375 141.30078125 C274.1715625 141.15431152 275.23375 141.0078418 276.328125 140.85693359 C279.54923592 140.37729435 282.76288798 139.86360996 285.97619629 139.33456421 C333.43730036 131.63011288 383.36805311 129.57981921 431.109375 136.30078125 C432.37668457 136.46707031 433.64399414 136.63335937 434.94970703 136.8046875 C491.98071961 144.30883761 586.76953185 163.2394873 625.109375 210.30078125 C637.95579988 243.17378769 637.7165638 288.940635 624.109375 321.30078125 C622.90206492 323.83556913 621.61073522 326.31987796 620.296875 328.80078125 C616.23596611 336.64284753 614.96150318 342.37148564 617.484375 350.92578125 C620.33049926 357.89285625 625.36422078 362.30336566 631.921875 365.80078125 C640.3904348 367.12918279 647.93936709 367.41596982 655.109375 362.30078125 C681.77974655 342.77768553 689.48964896 303.44695149 696.109375 273.30078125 C699.109375 273.30078125 699.109375 273.30078125 701.0546875 275.1015625 C701.77398438 275.93042969 702.49328125 276.75929688 703.234375 277.61328125 C704.03875 278.54011719 704.843125 279.46695312 705.671875 280.421875 C706.47625 281.37191406 707.280625 282.32195312 708.109375 283.30078125 C708.79 284.09613281 709.470625 284.89148438 710.171875 285.7109375 C721.71521983 299.50610907 732.51959407 314.08033772 742.109375 329.30078125 C742.55812988 330.01041016 743.00688477 330.72003906 743.46923828 331.45117188 C765.88876542 367.18109316 791.62667438 413.60255899 790.109375 457.30078125 C787.86757033 455.1891142 786.17165298 453.04481165 784.5078125 450.45703125 C784.0226416 449.71098633 783.5374707 448.96494141 783.03759766 448.19628906 C782.26875244 447.0105127 782.26875244 447.0105127 781.484375 445.80078125 C765.61145097 421.75089635 746.45300687 404.10637159 720.109375 392.30078125 C719.0678125 391.83027344 718.02625 391.35976563 716.953125 390.875 C680.86639898 375.85436533 638.28567124 375.93739868 599.83859253 373.61871338 C517.25748151 368.63490104 429.05050214 361.25394939 331.90209961 281.29931641 C330.15346276 279.53217415 328.3967051 277.7734151 326.63867188 276.015625 C320.9199056 270.27914873 315.33169538 264.49902993 310.109375 258.30078125 C309.17167502 257.21779476 308.23290287 256.13573552 307.29296875 255.0546875 C296.00721624 241.96362165 285.03995533 228.62363722 274.42285156 214.98486328 C272.67014548 212.73762043 270.90657386 210.49902371 269.14306641 208.26025391 C260.33574623 197.07620315 251.58718839 185.84523148 242.921875 174.55078125 C226.95016127 153.77456827 210.50940009 133.33327391 192.69140625 114.1015625 C190.29921847 111.50670828 187.95066284 108.87898778 185.609375 106.23828125 C178.86850691 98.73770888 171.78357572 91.56004049 164.1015625 85.01953125 C162.70806909 83.81730164 161.3399561 82.58530684 159.9921875 81.33203125 C152.15781982 74.05160876 143.67525505 67.68351672 135.109375 61.30078125 C134.51108887 60.85057617 133.91280273 60.40037109 133.29638672 59.93652344 C123.05462863 52.25298676 112.1845345 45.7067278 101.109375 39.30078125 C100.47483398 38.92711426 99.84029297 38.55344727 99.18652344 38.16845703 C68.31782973 20.08525424 32.68855725 11.13203973 -2.39501953 5.76464844 C-3.4776709 5.59868164 -4.56032227 5.43271484 -5.67578125 5.26171875 C-6.63492432 5.1229834 -7.59406738 4.98424805 -8.58227539 4.84130859 C-10.890625 4.30078125 -10.890625 4.30078125 -12.890625 2.30078125 C-8.45187554 0.60567159 -4.74212259 0.03447996 0 0 Z " fill="#010101" transform="translate(476.890625,127.69921875)"/>
<path d="M0 0 C5.75474876 2.27888051 10.85987542 5.19914627 16.125 8.4375 C33.48247729 18.97046416 51.19294015 28.79709658 69.06835938 38.41943359 C76.38773477 42.36560584 83.68354993 46.3549003 90.97705078 50.34863281 C94.26110627 52.14263631 97.55060261 53.92646123 100.83984375 55.7109375 C116.80110063 64.39498595 132.44239695 73.50538418 147.88964844 83.07373047 C150.72578293 84.83017483 153.56906928 86.57436716 156.4140625 88.31640625 C166.05419702 94.26210657 175.21525363 100.64018214 184.1640625 107.58154297 C185.94259614 108.95564941 187.73397596 110.31068956 189.53125 111.66015625 C195.50938026 116.16592546 201.23074228 120.84890835 206.73828125 125.921875 C208.79026416 127.80728935 210.88151954 129.62770033 213 131.4375 C221.54128224 138.91327017 228.98547472 147.09324023 236 156 C236.79148437 156.96292969 237.58296875 157.92585937 238.3984375 158.91796875 C245.69689611 168.00075084 251.42314474 177.78803329 257 188 C257.36867188 188.66338379 257.73734375 189.32676758 258.1171875 190.01025391 C275.31545216 221.19827238 282.44131705 256.20518727 282.3125 291.5 C282.30976578 293.04903519 282.30976578 293.04903519 282.30697632 294.62936401 C282.17997272 337.48500991 274.94731179 376.23307875 256 415 C255.65533691 415.71381836 255.31067383 416.42763672 254.95556641 417.16308594 C243.57551857 440.48435988 227.92227147 461.34119682 210 480 C209.1440625 480.8971875 208.288125 481.794375 207.40625 482.71875 C201.63263401 488.63853348 195.49546636 493.89140348 189 499 C188.02546875 499.79148437 187.0509375 500.58296875 186.046875 501.3984375 C147.6259858 532 147.6259858 532 133 532 C133.65303508 527.64367737 135.24649763 523.91044005 137.0625 519.9375 C143.87078331 504.63939094 150.27815816 489.37321893 154 473 C154.16371094 472.28650391 154.32742188 471.57300781 154.49609375 470.83789062 C168.37221092 407.24857683 136.21289825 347.49231807 103.14398193 295.77429199 C97.13775485 286.45875973 90.9144613 277.28372215 84.73686218 268.08155823 C78.08068741 258.15422674 71.51254883 248.16865396 64.9375 238.1875 C63.73739281 236.36734581 62.53727903 234.54719598 61.3371582 232.72705078 C-10.8529237 123.17818672 -10.8529237 123.17818672 -11.203125 66.79296875 C-11.21013931 66.0340332 -11.21715363 65.27509766 -11.22438049 64.49316406 C-11.24178648 62.05788169 -11.24823228 59.62284228 -11.25 57.1875 C-11.25067474 56.35674957 -11.25134949 55.52599915 -11.25204468 54.67007446 C-11.19765298 12.58970726 -11.19765298 12.58970726 -1.34375 1.0625 C-0.9003125 0.711875 -0.456875 0.36125 0 0 Z " fill="#010101" transform="translate(1021,756)"/>
<path d="M0 0 C1.06420166 0.35964844 1.06420166 0.35964844 2.14990234 0.7265625 C12.55548965 4.28219149 22.29728416 8.84780103 32 14 C32.66 14.34401855 33.32 14.68803711 34 15.04248047 C48.7709941 22.77777889 61.94090966 32.47778697 74 44 C75.19109375 45.07894531 75.19109375 45.07894531 76.40625 46.1796875 C110.98257025 78.67705179 121.73803852 128.7178217 129.21875 173.5234375 C129.353204 174.32799126 129.487658 175.13254501 129.62618637 175.96147919 C130.87422447 183.44779846 132.10349428 190.93716678 133.32275391 198.42822266 C139.32817524 235.25320105 145.99695131 275.77759267 178.09375 299.55078125 C202.00520022 315.39621144 235.14132958 315.29274843 262.21484375 309.80859375 C273.98513868 307.21340243 285.36445013 303.75618801 296.65429688 299.54052734 C297.54697266 299.21004395 298.43964844 298.87956055 299.359375 298.5390625 C300.13764648 298.24209473 300.91591797 297.94512695 301.71777344 297.63916016 C304.23624788 296.93383644 306.39713871 296.8867071 309 297 C305.29775814 301.89813043 301.5043873 305.01815031 296.3125 308.25 C295.56846924 308.71962158 294.82443848 309.18924316 294.05786133 309.6730957 C291.71666892 311.13508443 289.3624417 312.57263018 287 314 C285.89736816 314.66684814 285.89736816 314.66684814 284.77246094 315.34716797 C254.48862216 333.42414453 218.77888847 343.09407457 183.58203125 335.03515625 C144.76590222 323.81784524 116.7763427 296.58499525 97.38354492 261.91455078 C87.3698835 243.66517291 78.86454349 224.67953122 70.375 205.6875 C49.89278191 159.98251335 25.03306013 114.13482617 -24.42382812 95.06542969 C-35.75224207 91.04866993 -47.02619258 88.80170201 -59 88 C-59.82242187 87.94070313 -60.64484375 87.88140625 -61.4921875 87.8203125 C-83.09925145 87.08648769 -105.12286782 94.22937785 -121 109 C-133.58569662 121.85435682 -139.82035505 138.11534694 -140 156 C-138.78225708 173.62827844 -132.07993111 188.94924802 -119 201 C-103.77246152 213.27688936 -83.81357598 221.83600704 -64 220 C-50.40128162 218.04100095 -39.21731437 212.26937581 -30 202 C-21.07800576 189.39831322 -17.40462346 175.89772337 -19.4609375 160.5625 C-21.39399708 150.01026891 -25.21681437 142.55862815 -33.53125 135.69921875 C-46.13301168 127.02553785 -58.78142005 123.52528754 -74 125 C-83.00779434 126.73506535 -91.24198993 130.66488738 -96.62890625 138.3125 C-101.28658239 146.38049742 -102.71800978 155.22644554 -100.38671875 164.41796875 C-96.78954542 172.61064987 -88.73159954 176.41032878 -81 180 C-81.33 180.66 -81.66 181.32 -82 182 C-91.01487885 179.88213047 -98.03219098 177.33408927 -104 170 C-108.68032825 162.06039024 -110.21199803 153.90666508 -108.3515625 144.83984375 C-105.11054558 132.99766653 -98.13725083 123.82349617 -87.515625 117.52734375 C-72.84126464 109.90112314 -57.18553425 109.60706143 -41.39453125 114.00390625 C-25.12801789 119.3787738 -10.85427511 129.47945105 -3 145 C4.58458569 163.47586575 4.67821411 186.29792173 -2.74755859 204.86962891 C-10.94548874 224.12897737 -25.60113951 237.16762271 -44.46875 245.5390625 C-69.05584533 255.36241133 -94.97525642 252.74553033 -119.30566406 243.08447266 C-133.21255838 237.06315652 -144.39018496 227.90310523 -155.34472656 217.55371094 C-157.14117448 215.86748755 -158.95571445 214.20232047 -160.7734375 212.5390625 C-167.09263771 206.73731149 -173.17483479 200.90609783 -178.82421875 194.4375 C-184.71072346 187.84292381 -191.06340828 181.65872269 -197.79296875 175.9296875 C-199.54034833 174.40189013 -201.23823566 172.84995867 -202.92578125 171.2578125 C-210.27739204 164.32421251 -217.81391422 157.92727948 -226 152 C-226.54785156 151.59571777 -227.09570312 151.19143555 -227.66015625 150.77490234 C-245.16765856 137.96416327 -265.14831655 129.63245543 -286 124 C-286.89734863 123.75475586 -287.79469727 123.50951172 -288.71923828 123.25683594 C-312.06456696 117.03859092 -336.17400855 113.80878638 -360 110 C-360 109.34 -360 108.68 -360 108 C-358.49212839 106.62508701 -356.91460239 105.32635538 -355.3125 104.0625 C-351.63678507 101.12661049 -348.00519704 98.17019261 -344.44140625 95.09790039 C-336.23561898 88.03677952 -327.67595731 81.47036658 -319 75 C-318.27119629 74.45553223 -317.54239258 73.91106445 -316.79150391 73.35009766 C-245.8866423 20.62195196 -160.08138665 -14.31555021 0 0 Z " fill="#010101" transform="translate(735,1070)"/>
<path d="M0 0 C7.79157085 0.4399232 14.90647574 1.76310163 22.375 4 C23.4064917 4.30542725 24.4379834 4.61085449 25.50073242 4.92553711 C57.32595515 14.66864799 86.85913039 31.21712231 103.1015625 61.3671875 C103.73698886 62.57675545 104.36985296 63.78767331 105 65 C105.58523438 66.11632812 106.17046875 67.23265625 106.7734375 68.3828125 C118.91469907 92.94002481 124.44603095 120.31395962 130.48046875 146.8671875 C139.34437012 185.85834424 152.03569526 217.92055942 174.33203125 251.52734375 C175.28142578 252.96787109 175.28142578 252.96787109 176.25 254.4375 C176.77078125 255.19933594 177.2915625 255.96117187 177.828125 256.74609375 C179.26626512 259.51211659 179.71070284 261.90577824 180 265 C178.64356966 268.88843366 177.26724647 269.85647875 173.625 271.8125 C156.33100355 277.33521784 135.90502265 269.0624648 120.40307617 261.33300781 C99.08030205 250.23464389 78.16279174 233.70609676 63 215 C62.10041158 213.92435272 61.20065617 212.8488451 60.30078125 211.7734375 C25.64478907 169.90380196 6.35224201 116.39970759 -1 63 C-1.10530029 62.25484131 -1.21060059 61.50968262 -1.3190918 60.74194336 C-2.27962676 52.80579006 -2.18607865 44.81608814 -2.18530273 36.83422852 C-2.18748016 34.33527344 -2.20566544 31.83676749 -2.22460938 29.33789062 C-2.25823018 19.3791116 -1.62832676 9.8336175 0 0 Z " fill="#010101" transform="translate(462,167)"/>
<path d="M0 0 C19.63310223 15.36503653 30.90452866 39.68131537 38.4375 62.875 C38.78977661 63.94186035 38.78977661 63.94186035 39.14916992 65.03027344 C42.95763161 77.44408191 43.32521338 90.02905377 43.26074219 102.89477539 C43.25002854 105.43074523 43.26069773 107.96600469 43.2734375 110.50195312 C43.28597746 123.39052319 42.85307866 136.35226376 38.5 148.625 C38.24645752 149.35807373 37.99291504 150.09114746 37.73168945 150.84643555 C32.43642996 165.58019783 25.60353794 179.60114655 16 192 C15.34 192.88042969 14.68 193.76085937 14 194.66796875 C-19.54457038 237.67871524 -70.92524125 258.12725945 -123.796875 265.02807617 C-144.14007561 267.41605166 -164.66830426 268.53355472 -185.109375 269.71484375 C-237.4992686 272.74246987 -289.24565712 277.10978531 -339.34106445 293.86694336 C-340.17855225 294.14675049 -341.01604004 294.42655762 -341.87890625 294.71484375 C-342.97054077 295.08790649 -342.97054077 295.08790649 -344.08422852 295.46850586 C-346 296 -346 296 -349 296 C-343.95726112 282.22471329 -311.97164316 271.15094449 -299.38037109 265.22705078 C-257.37388694 246.1363484 -210.91944554 239.5102301 -165.8180542 231.73171997 C-101.97531058 221.91365928 -101.97531058 221.91365928 -45 193 C-44.46681152 192.6090918 -43.93362305 192.21818359 -43.38427734 191.81542969 C-29.00811905 181.25519051 -16.55294063 169.12346369 -7 154 C-6.41460449 153.07646729 -6.41460449 153.07646729 -5.81738281 152.13427734 C17.81920713 114.14620472 17.46101623 70.29497802 7.76806641 27.90136719 C5.86670695 19.79067301 3.76971338 11.97564692 0.76953125 4.19287109 C0 2 0 2 0 0 Z " fill="#010101" transform="translate(941,717)"/>
<path d="M0 0 C13.43138166 11.45492835 23.23995762 26.73698671 25.17578125 44.57421875 C25.65383158 54.69295068 20.6725891 62.88574221 14.3984375 70.43359375 C1.76836839 84.00258886 -17.42155349 90.55458111 -35.04296875 94.55859375 C-35.75308105 94.72375488 -36.46319336 94.88891602 -37.19482422 95.05908203 C-48.04619922 97.46966775 -58.90621098 97.86316791 -69.98046875 97.93359375 C-71.28395264 97.94753174 -72.58743652 97.96146973 -73.93041992 97.97583008 C-86.55053299 97.91384445 -97.48403211 96.29965346 -107.04296875 87.55859375 C-115.44335373 78.30573841 -116.59772166 66.13951666 -116.48046875 54.12109375 C-116.47289551 53.02579346 -116.46532227 51.93049316 -116.45751953 50.80200195 C-116.29243613 42.70146772 -115.42343605 35.99980815 -112.04296875 28.55859375 C-111.59566406 27.52863281 -111.14835937 26.49867188 -110.6875 25.4375 C-107.58041363 18.7651778 -103.79619848 13.15124595 -99.04296875 7.55859375 C-98.51058594 6.88183594 -97.97820313 6.20507812 -97.4296875 5.5078125 C-88.57582097 -5.37462488 -74.9568122 -14.25655181 -60.92578125 -16.1953125 C-38.76755044 -18.08686879 -17.55889157 -14.08768579 0 0 Z " fill="#010101" transform="translate(621.04296875,570.44140625)"/>
<path d="M0 0 C0.33 0 0.66 0 1 0 C0.4240236 5.75329237 -0.75100932 10.92135935 -2.4375 16.4375 C-12.14035572 50.07985233 -9.73975608 96.40235359 6.37109375 127.66015625 C14.12203526 141.25056048 25.55858053 152.84807405 36.734375 163.671875 C38.64229921 165.6324316 40.42132243 167.63016481 42.203125 169.703125 C46.24848484 174.36318906 50.60170221 178.67549915 55 183 C59.98635288 187.90268924 64.83307023 192.83692514 69.39160156 198.14208984 C71.34825941 200.40228508 73.37868463 202.58406658 75.42333984 204.7644043 C80.73454115 210.42843516 85.83851914 216.20423685 90.65576172 222.29931641 C91.67233382 223.58544812 92.69289103 224.86843131 93.71533203 226.14990234 C95.63014462 228.55248302 97.53499627 230.96266395 99.4375 233.375 C100.05351074 234.1486792 100.66952148 234.9223584 101.30419922 235.71948242 C101.88314941 236.4591626 102.46209961 237.19884277 103.05859375 237.9609375 C103.83674438 238.94779541 103.83674438 238.94779541 104.63061523 239.95458984 C106.14114011 242.21081687 107.07539166 244.45380066 108 247 C102.92118551 242.71721732 98.06036725 238.26768652 93.25 233.6875 C87.89298467 228.62662585 82.46646446 223.76279978 76.69921875 219.16796875 C74.1823973 217.14649856 71.72385589 215.07386338 69.27294922 212.97387695 C62.93714142 207.54760956 56.45002702 202.37341791 49.7890625 197.35058594 C47.8237908 195.86697744 45.8651466 194.37482656 43.90625 192.8828125 C42.50033556 191.81726544 41.0940902 190.75215486 39.6875 189.6875 C39.04192139 189.19580322 38.39634277 188.70410645 37.73120117 188.19750977 C28.31855689 180.6272587 28.31855689 180.6272587 17 178 C10.89762611 183.46001875 11.55534551 191.84452696 11.11621094 199.49023438 C10.98078785 202.41491793 10.8978838 205.33883354 10.8203125 208.265625 C9.89707137 242.64420923 6.63129826 278.55305261 -13 308 C-13.66 308 -14.32 308 -15 308 C-14.58789876 302.0932156 -12.60780589 297.27764339 -10.25390625 291.8671875 C-6.74071044 282.28227737 -6.69903621 271.67470589 -6.734375 261.59765625 C-6.73150482 259.73916298 -6.73150482 259.73916298 -6.72857666 257.84312439 C-6.72722445 255.23550207 -6.73085295 252.6278728 -6.73925781 250.02026367 C-6.74988779 246.10384318 -6.73937168 242.18789007 -6.7265625 238.27148438 C-6.70739512 205.77081255 -6.98375989 170.78463813 -30.75 145.8125 C-46.32398476 131.21570644 -65.35745574 121.08940661 -84 111 C-85.08547119 110.4033252 -86.17094238 109.80665039 -87.28930664 109.19189453 C-96.6808916 104.0670867 -106.28400457 99.58200712 -116.0625 95.25 C-118.95205886 93.96979549 -121.83826453 92.68242268 -124.72265625 91.390625 C-125.68837303 90.96707733 -125.68837303 90.96707733 -126.67359924 90.53497314 C-130.7738389 88.69743621 -134.3396745 86.57153227 -138 84 C-134.43361596 82.7602971 -132.06694623 83.2464619 -128.453125 84.1953125 C-127.3182666 84.49236084 -126.1834082 84.78940918 -125.01416016 85.09545898 C-123.7719873 85.43520752 -122.52981445 85.77495605 -121.25 86.125 C-120.60617371 86.29895294 -119.96234741 86.47290588 -119.29901123 86.65213013 C-93.96490617 93.52002296 -68.89604142 101.79310272 -44.4296875 111.29296875 C-37.93119988 113.80851235 -32.97085295 115.24037424 -26 115 C-23.81428559 106.92966986 -23.35383506 98.81087479 -22.79644775 90.50842285 C-20.61231736 58.55278353 -16.48748606 28.01771016 0 0 Z " fill="#010101" transform="translate(1139,154)"/>
</svg>
